<svg xmlns="http://www.w3.org/2000/svg" enable-background="new 0 0 64 64" viewBox="0 0 64 64" id="category"><polygon fill="#778CA3" points="26 45 18 56 46 56 39 45"></polygon><path fill="#4B7BEC" d="M61,8v38c0,1.1-0.9,2-2,2H5c-1.1,0-2-0.9-2-2V8c0-1.1,0.9-2,2-2h54C60.1,6,61,6.9,61,8z"></path><path fill="#3867D6" d="M59,6h-1v29c0,1.1-0.9,2-2,2H3v9c0,1.1,0.9,2,2,2h54c1.1,0,2-0.9,2-2V8C61,6.9,60.1,6,59,6z"></path><path fill="#D1D8E0" d="M61,40v6c0,1.1-0.9,2-2,2H5c-1.1,0-2-0.9-2-2v-6H61z"></path><path fill="#A5B1C2" d="M58,40v4c0,1.1-0.9,2-2,2H3c0,1.1,0.9,2,2,2h54c1.1,0,2-0.9,2-2v-6H58z"></path><path fill="#D1D8E0" d="M47,58H17c-1.105,0-2-0.895-2-2v0c0-1.105,0.895-2,2-2h30c1.105,0,2,0.895,2,2v0C49,57.105,48.105,58,47,58
		z"></path><path fill="#A5B1C2" d="M47,54h-1c0,1.105-0.895,2-2,2H15c0,1.105,0.895,2,2,2h30c1.105,0,2-0.895,2-2C49,54.895,48.105,54,47,54z"></path><path fill="#4B6584" d="M62,28.5V8c0-1.65-1.35-3-3-3H5C3.35,5,2,6.35,2,8v38c0,1.65,1.35,3,3,3h16.13l-2.67,4l-1.329,0
		c-1.451,0-2.789,0.972-3.071,2.395C13.681,57.307,15.152,59,17,59h29.869c1.451,0,2.789-0.972,3.071-2.395
		C50.319,54.693,48.848,53,47,53h-1.46l-2.67-4H59c1.65,0,3-1.35,3-3V35.5c0-0.276-0.224-0.5-0.5-0.5h-1c-0.276,0-0.5,0.224-0.5,0.5
		V39H4V8c0-0.55,0.45-1,1-1h54c0.55,0,1,0.45,1,1v20.5c0,0.276,0.224,0.5,0.5,0.5h1C61.776,29,62,28.776,62,28.5z M47,55
		c0.55,0,1,0.45,1,1s-0.45,1-1,1H17c-0.55,0-1-0.45-1-1s0.45-1,1-1H47z M43.13,53H20.87l2.67-4h16.92L43.13,53z M60,41v5
		c0,0.55-0.45,1-1,1H5c-0.55,0-1-0.45-1-1v-5H60z M60,31.5v1c0,0.276,0.224,0.5,0.5,0.5h1c0.276,0,0.5-0.224,0.5-0.5v-1
		c0-0.276-0.224-0.5-0.5-0.5h-1C60.224,31,60,31.224,60,31.5z"></path><path fill="#4B6584" d="M31,44.5v-1c0-0.276,0.224-0.5,0.5-0.5h1c0.276,0,0.5,0.224,0.5,0.5v1c0,0.276-0.224,0.5-0.5,0.5h-1
		C31.224,45,31,44.776,31,44.5z"></path><path fill="#D1D8E0" d="M28,21h-6c-1.105,0-2-0.895-2-2v-6c0-1.105,0.895-2,2-2h6c1.105,0,2,0.895,2,2v6C30,20.105,29.105,21,28,21
		z"></path><path fill="#45AAF2" d="M42 21h-6c-1.105 0-2-.895-2-2v-6c0-1.105.895-2 2-2h6c1.105 0 2 .895 2 2v6C44 20.105 43.105 21 42 21zM28 35h-6c-1.105 0-2-.895-2-2v-6c0-1.105.895-2 2-2h6c1.105 0 2 .895 2 2v6C30 34.105 29.105 35 28 35z"></path><path fill="#D1D8E0" d="M42,35h-6c-1.105,0-2-0.895-2-2v-6c0-1.105,0.895-2,2-2h6c1.105,0,2,0.895,2,2v6C44,34.105,43.105,35,42,35
		z"></path><path fill="#A5B1C2" d="M28,11h-1v5c0,1.105-0.895,2-2,2h-5v1c0,1.105,0.895,2,2,2h6c1.105,0,2-0.895,2-2v-6
		C30,11.895,29.105,11,28,11z"></path><path fill="#2D98DA" d="M42 11h-1v5c0 1.105-.895 2-2 2h-5v1c0 1.105.895 2 2 2h6c1.105 0 2-.895 2-2v-6C44 11.895 43.105 11 42 11zM28 25h-1v5c0 1.105-.895 2-2 2h-5v1c0 1.105.895 2 2 2h6c1.105 0 2-.895 2-2v-6C30 25.895 29.105 25 28 25z"></path><path fill="#A5B1C2" d="M42,25h-1v5c0,1.105-0.895,2-2,2h-5v1c0,1.105,0.895,2,2,2h6c1.105,0,2-0.895,2-2v-6
		C44,25.895,43.105,25,42,25z"></path><path fill="#4B6584" d="M28 22h-6c-1.654 0-3-1.346-3-3v-6c0-1.654 1.346-3 3-3h6c1.654 0 3 1.346 3 3v6C31 20.654 29.654 22 28 22zM22 12c-.551 0-1 .448-1 1v6c0 .552.449 1 1 1h6c.551 0 1-.448 1-1v-6c0-.552-.449-1-1-1H22zM42 22h-6c-1.654 0-3-1.346-3-3v-6c0-1.654 1.346-3 3-3h6c1.654 0 3 1.346 3 3v6C45 20.654 43.654 22 42 22zM36 12c-.551 0-1 .448-1 1v6c0 .552.449 1 1 1h6c.551 0 1-.448 1-1v-6c0-.552-.449-1-1-1H36zM28 36h-6c-1.654 0-3-1.346-3-3v-6c0-1.654 1.346-3 3-3h6c1.654 0 3 1.346 3 3v6C31 34.654 29.654 36 28 36zM22 26c-.551 0-1 .448-1 1v6c0 .552.449 1 1 1h6c.551 0 1-.448 1-1v-6c0-.552-.449-1-1-1H22zM42 36h-6c-1.654 0-3-1.346-3-3v-6c0-1.654 1.346-3 3-3h6c1.654 0 3 1.346 3 3v6C45 34.654 43.654 36 42 36zM36 26c-.551 0-1 .448-1 1v6c0 .552.449 1 1 1h6c.551 0 1-.448 1-1v-6c0-.552-.449-1-1-1H36z"></path></svg>