<svg xmlns="http://www.w3.org/2000/svg" viewBox="0 0 64 64" id="earth"><path fill="#3fc5f0" d="M62,32a29.5587,29.5587,0,0,1-.99,7.63A30.0583,30.0583,0,0,1,48.5,57.04,30.0044,30.0044,0,0,1,2.01,32.27,2.4369,2.4369,0,0,1,2,32,30.0416,30.0416,0,0,1,32,2,29.6289,29.6289,0,0,1,43.09,4.13,30.0368,30.0368,0,0,1,62,32Z"></path><path fill="#6decb9" d="M29.73 29.28a6.4516 6.4516 0 0 1-2.32 3.31 6.5433 6.5433 0 0 1-3.84 1.29c-3.42.04-8.36-.51-12.34-3.36-1.66-1.18-4.54-.84-7.7.92l-.01.01-1.51.82A2.4369 2.4369 0 0 1 2 32a29.9087 29.9087 0 0 1 9.01-21.41l.57 1.11c4.29 4.83 8.91 8.03 13.76 9.51A6.5385 6.5385 0 0 1 29.73 29.28zM62 32a29.5587 29.5587 0 0 1-.99 7.63l-1.1-.51c-.06-.03-.1-.06-.15-.09a17.6273 17.6273 0 0 0-4.11-2.09 11.752 11.752 0 0 0-9.05.26 5.0043 5.0043 0 0 1-2 .41 5.1177 5.1177 0 0 1-4.95-3.87 5.1836 5.1836 0 0 1 1.28-4.8c1.37-1.44 2.62-3.94.13-10.59-1.31-3.49-.88-8.01 1.28-13.45a.923.923 0 0 1 .3-.4l.45-.37A30.0368 30.0368 0 0 1 62 32zM48.5 57.04a29.9179 29.9179 0 0 1-37.56-3.71l.28-.62a1.7611 1.7611 0 0 1 .14-.23 11.4608 11.4608 0 0 1 6.41-3.45c5.3-1.23 7.42-2.55 8.25-3.44a9.4819 9.4819 0 0 1 12.86-.71A32.85 32.85 0 0 1 47.73 56.3C47.99 56.56 48.25 56.8 48.5 57.04z"></path><path fill="#0f3460" d="M62,32a29.5587,29.5587,0,0,1-.99,7.63A30.0583,30.0583,0,0,1,48.5,57.04,30.0751,30.0751,0,0,1,8.01,49.99a29.9986,29.9986,0,0,0,47-16.36A29.5587,29.5587,0,0,0,56,26,29.8828,29.8828,0,0,0,50.02,8.04,29.9484,29.9484,0,0,1,62,32Z" opacity=".15"></path><path fill="#0f3460" d="M43.6807,4.3679c-.0155-.0071-.0255-.0207-.0415-.0271s-.031-.0032-.0463-.0085A29.9466,29.9466,0,0,0,10.13,11.4959c-.013.01-.0291.013-.0417.0241a.9375.9375,0,0,0-.0724.0956,29.9276,29.9276,0,0,0,1.3881,42.1667.9468.9468,0,0,0,.0817.103c.0187.0156.042.0194.0614.0335a29.9179,29.9179,0,0,0,35.7217,3.89c.0162-.0065.0334-.0035.0495-.0109a.9448.9448,0,0,0,.1138-.0831A30.0922,30.0922,0,0,0,61.2944,38.4493c.0055-.0223.0112-.0433.0152-.0657A29.9793,29.9793,0,0,0,43.6807,4.3679ZM10.7773,13.7662c4.3412,4.6866,9.0364,7.8465,13.979,9.36a4.5249,4.5249,0,0,1,3.0572,5.5732,4.4565,4.4565,0,0,1-1.6021,2.29,4.5344,4.5344,0,0,1-2.6635.8911c-3.146.0327-7.6138-.4487-11.1563-2.9834-2.0127-1.4385-4.9476-1.4154-8.2159.003A27.8794,27.8794,0,0,1,10.7773,13.7662ZM32,60a27.875,27.875,0,0,1-18.4045-6.9252,10.8117,10.8117,0,0,1,4.63-2.1007c4.7124-1.0888,7.7393-2.4,9.2524-4.0083a7.4616,7.4616,0,0,1,10.1275-.5434A31.5777,31.5777,0,0,1,45.5714,56.48,27.8218,27.8218,0,0,1,32,60Zm15.2885-4.56a33.0471,33.0471,0,0,0-8.4106-10.56,9.4613,9.4613,0,0,0-12.8564.7148c-.8364.8892-2.9468,2.2066-8.2466,3.4312a12.525,12.525,0,0,0-5.6473,2.6773A27.9086,27.9086,0,0,1,4,32c0-.2709.0128-.5387.0205-.8077,2.964-1.5292,5.6343-1.7943,7.2075-.6689,3.85,2.7539,8.5811,3.3584,11.9893,3.3584q.1779,0,.3511-.0019a6.5474,6.5474,0,0,0,3.84-1.2886,6.449,6.449,0,0,0,2.3193-3.3144,6.5305,6.5305,0,0,0-4.3857-8.063c-4.6422-1.4215-9.08-4.434-13.2081-8.924a27.9371,27.9371,0,0,1,29.86-6.4394c-1.8376,5.009-2.1645,9.2179-.9305,12.5,2.4878,6.6514,1.2383,9.1538-.1314,10.5942A5.1144,5.1144,0,0,0,44.6,37.61a5.0037,5.0037,0,0,0,2.0044-.4112,11.7617,11.7617,0,0,1,9.043-.2627,18.523,18.523,0,0,1,3.5465,1.72A28.0836,28.0836,0,0,1,47.2885,55.44ZM59.62,36.5747a21.9154,21.9154,0,0,0-3.2686-1.5107,13.8781,13.8781,0,0,0-10.54.2983A2.9813,2.9813,0,0,1,44.6,35.61a3.1146,3.1146,0,0,1-3.0093-2.3589,3.1675,3.1675,0,0,1,.794-2.9322c2.59-2.7241,2.7661-6.75.5512-12.6709-1.0391-2.7631-.7146-6.5614.9-11.0152A27.9588,27.9588,0,0,1,59.62,36.5747Z"></path></svg>