<svg xmlns="http://www.w3.org/2000/svg" viewBox="0 0 64 64" id="publishing-house"><path fill="#4aa5ff" d="M52.01716,21.5h4c1.65575,0,3,1.34425,3,3V56.5h-7V21.5h0Z"></path><path fill="#21257c" d="M59.01716,57.5h-7c-.55225,0-1-.44727-1-1V21.5c0-.55273,.44775-1,1-1h4c2.20557,0,4,1.79395,4,4V56.5c0,.55273-.44775,1-1,1Zm-6-2h5V24.5c0-1.10254-.89697-2-2-2h-3V55.5Z"></path><path fill="#e6f3ff" d="M52.01716 28.5h1c1.10383 0 2 .89617 2 2v4c0 1.10383-.89617 2-2 2h-1v-8h0zM52.01716 40.5h1c1.10383 0 2 .89617 2 2v4c0 1.10383-.89617 2-2 2h-1v-8h0z"></path><path fill="#4aa5ff" d="M5.01716,21.5h7v32c0,1.65575-1.34425,3-3,3h-4V21.5h0Z" transform="rotate(-180 8.517 39)"></path><path fill="#21257c" d="M12.01716,57.5H5.01716c-.55225,0-1-.44727-1-1V24.5c0-2.20605,1.79443-4,4-4h4c.55225,0,1,.44727,1,1V56.5c0,.55273-.44775,1-1,1Zm-6-2h5V22.5h-3c-1.10303,0-2,.89746-2,2v31Z"></path><path fill="#e6f3ff" d="M9.01716,28.5h1c1.10383,0,2,.89617,2,2v4c0,1.10383-.89617,2-2,2h-1v-8h0Z" transform="rotate(-180 10.517 32.5)"></path><path fill="#e6f3ff" d="M9.01716,40.5h1c1.10383,0,2,.89617,2,2v4c0,1.10383-.89617,2-2,2h-1v-8h0Z" transform="rotate(-180 10.517 44.5)"></path><path fill="#e6f3ff" d="M59.01716,60.5H5.01715c-2.62016-.06017-2.65216-3.93059,.00007-4-.00007,0,53.99993,0,53.99993,0,2.62016,.06017,2.65216,3.93059,0,4Z"></path><path fill="#21257c" d="M59.01716,61.5H5.01716c-1.6543,0-3-1.3457-3-3s1.3457-3,3-3H59.01716c3.93905,.09724,3.96942,5.89396,0,6ZM5.01716,57.5c-1.29327,.01733-1.33096,1.97516,.00006,2-.00006,0,53.99994,0,53.99994,0,1.29327-.01733,1.33096-1.97516-.00006-2,.00006,0-53.99994,0-53.99994,0Z"></path><path fill="#e6f3ff" d="M15.01716,9.5H49.01716c1.65575,0,3,1.34425,3,3V56.5H12.01716V12.5c0-1.65575,1.34425-3,3-3Z"></path><path fill="#21257c" d="M52.01716,57.5H12.01716c-.55225,0-1-.44727-1-1V12.5c0-2.20605,1.79443-4,4-4H49.01716c2.20557,0,4,1.79395,4,4V56.5c0,.55273-.44775,1-1,1Zm-39-2H51.01716V12.5c0-1.10254-.89697-2-2-2H15.01716c-1.10303,0-2,.89746-2,2V55.5Z"></path><path fill="#4aa5ff" d="M24.01716,39.5h16c1.65575,0,3,1.34425,3,3v14H21.01716v-14c0-1.65575,1.34425-3,3-3Z"></path><path fill="#21257c" d="M43.01716,57.5H21.01716c-.55225,0-1-.44727-1-1v-14c0-2.20605,1.79443-4,4-4h16c2.20557,0,4,1.79395,4,4v14c0,.55273-.44775,1-1,1Zm-21-2h20v-13c0-1.10254-.89697-2-2-2H24.01716c-1.10303,0-2,.89746-2,2v13Z"></path><rect width="8" height="8" x="16.017" y="15.5" fill="#4aa5ff" rx="2" ry="2"></rect><rect width="8" height="8" x="28.017" y="15.5" fill="#4aa5ff" rx="2" ry="2"></rect><rect width="8" height="8" x="40.017" y="15.5" fill="#4aa5ff" rx="2" ry="2"></rect><rect width="8" height="8" x="16.017" y="27.5" fill="#4aa5ff" rx="2" ry="2"></rect><rect width="8" height="8" x="28.017" y="27.5" fill="#4aa5ff" rx="2" ry="2"></rect><rect width="8" height="8" x="40.017" y="27.5" fill="#4aa5ff" rx="2" ry="2"></rect><path fill="#21257c" d="M32.01716,57.5c-.55225,0-1-.44727-1-1v-17c0-.55273,.44775-1,1-1s1,.44727,1,1v17c0,.55273-.44775,1-1,1Z"></path><rect width="22" height="8" x="21.017" y="3.5" fill="#4aa5ff" rx="2" ry="2"></rect><path fill="#21257c" d="M41.01716,12.5H23.01716c-1.6543,0-3-1.3457-3-3V5.5c0-1.6543,1.3457-3,3-3h18c1.6543,0,3,1.3457,3,3v4c0,1.6543-1.3457,3-3,3ZM23.01716,4.5c-.55127,0-1,.44824-1,1v4c0,.55176,.44873,1,1,1h18c.55127,0,1-.44824,1-1V5.5c0-.55176-.44873-1-1-1H23.01716Z"></path><path fill="#e6f3ff" d="M32.00983,9.5c-.46007,.1043-1.96871-1.29364-2.66553-1.75l-2.06494,1.5498c-.35547,.26758-.84521,.26758-1.20068,0l-2.66211-2c-1.041-.78976,.15119-2.38063,1.20122-1.59957-.00005-.00004,2.06196,1.54879,2.06196,1.54879,3.15278-2.32757,2.1843-2.31705,5.33008,.00098,3.15612-2.3303,2.18724-2.31616,5.33691,.00098l2.0708-1.55176c1.05066-.77625,2.24246,.81196,1.19917,1.6016,.00005-.00004-2.67036,1.99996-2.67036,1.99996-.35547,.26562-.84375,.26562-1.19922,0l-2.07031-1.55078c-.71478,.4686-2.19869,1.84933-2.66699,1.75Z"></path></svg>